<svg id="Capa_1" data-name="Capa 1" xmlns="http://www.w3.org/2000/svg" viewBox="0 0 167 184.32"><defs><style>.cls-1{fill:#1d1d1b;}</style></defs><path class="cls-1" d="M166.78,58.67a22.6,22.6,0,0,0-1-6.57,30.39,30.39,0,0,0-4.54-9,24.51,24.51,0,0,0-7.33-6.77L96.34,3.14A22.84,22.84,0,0,0,90.13.75a30.21,30.21,0,0,0-13.38,0,22.84,22.84,0,0,0-6.21,2.39L13,36.33a22.8,22.8,0,0,0-5.17,4.18,30.23,30.23,0,0,0-5.53,8.43,24.82,24.82,0,0,0-2.2,9.73V125a23,23,0,0,0,1,6.57,30.18,30.18,0,0,0,4.55,9A24.73,24.73,0,0,0,13,147.38l57.53,33.19A22.84,22.84,0,0,0,76.75,183a30.21,30.21,0,0,0,13.38,0,22.84,22.84,0,0,0,6.21-2.39l57.53-33.19a22.91,22.91,0,0,0,5.18-4.18,30.25,30.25,0,0,0,5.52-8.44,24.57,24.57,0,0,0,2.21-9.72ZM157.59,125a13.7,13.7,0,0,1-.64,3.9,21.35,21.35,0,0,1-3.15,6.22,15.52,15.52,0,0,1-4.52,4.26L91.75,172.61a13.82,13.82,0,0,1-3.7,1.4,21.09,21.09,0,0,1-9.22,0,14.08,14.08,0,0,1-3.7-1.4L17.6,139.42a13.7,13.7,0,0,1-3.06-2.51,20.76,20.76,0,0,1-3.81-5.84,15.36,15.36,0,0,1-1.43-6V58.67a13.7,13.7,0,0,1,.64-3.9,20.8,20.8,0,0,1,3.15-6.23,15.71,15.71,0,0,1,4.51-4.25L75.13,11.1a13.74,13.74,0,0,1,3.7-1.4,21.09,21.09,0,0,1,9.22,0,13.49,13.49,0,0,1,3.7,1.4l57.53,33.19a13.68,13.68,0,0,1,3.06,2.5,21.07,21.07,0,0,1,3.82,5.84,15.62,15.62,0,0,1,1.43,6Z"/><path class="cls-1" d="M127.7,95.78H113.37a4.6,4.6,0,1,0,0,9.19h4.13L103.93,120.3l-14.4-16.54.83-1a15.92,15.92,0,0,0,2.18-2.61A14.76,14.76,0,0,0,94.2,97,12.53,12.53,0,0,0,95,92.56a12.77,12.77,0,0,0-.84-4.48,16,16,0,0,0-2.56-4.4,15.7,15.7,0,0,0-1.31-1.44l-.9-1.09,14.52-17.54L117.6,79.87h-4.23a4.6,4.6,0,1,0,0,9.19h14.09A4.59,4.59,0,0,0,131,81.51L109.91,56.44c.43-.55.89-1.15,1.36-1.79a37,37,0,0,0,2.88-4.54,18.22,18.22,0,0,0,1.12-2.59,10.15,10.15,0,0,0,.55-3.12A12.59,12.59,0,0,0,112.55,36a12,12,0,0,0-3.77-2.78,11.54,11.54,0,0,0-9.75,0,12.17,12.17,0,0,0-5.14,4.6A12.45,12.45,0,0,0,92,44.4a9.87,9.87,0,0,0,.54,3.12,21.71,21.71,0,0,0,2.14,4.38,48.9,48.9,0,0,0,3.24,4.56L83.44,74,69,56.46c.45-.56.91-1.17,1.39-1.81a37,37,0,0,0,2.88-4.54,18.19,18.19,0,0,0,1.11-2.59,10.15,10.15,0,0,0,.55-3.12A12.5,12.5,0,0,0,71.62,36a11.85,11.85,0,0,0-3.77-2.78,11.52,11.52,0,0,0-9.74,0A12.14,12.14,0,0,0,53,37.84a12.45,12.45,0,0,0-1.89,6.56,10.15,10.15,0,0,0,.55,3.12,21.17,21.17,0,0,0,2.13,4.38A49.82,49.82,0,0,0,57,56.44L35.91,81.51a4.59,4.59,0,0,0,3.52,7.55H53.52a4.6,4.6,0,0,0,0-9.19H49.29L63,63.61,77.48,81.15l-.9,1.09a16.45,16.45,0,0,0-2.18,2.6,15.49,15.49,0,0,0-1.7,3.24,12.51,12.51,0,0,0,0,8.91,15.84,15.84,0,0,0,2.52,4.37,14.34,14.34,0,0,0,1.32,1.44l.83,1L63,120.3,49.38,105h4.14a4.6,4.6,0,0,0,0-9.19H39.19a4.59,4.59,0,0,0-3.44,7.64l21.17,23.93c-.42.53-.86,1.1-1.31,1.71a37,37,0,0,0-2.88,4.54,17.71,17.71,0,0,0-1.11,2.59,10.1,10.1,0,0,0-.55,3.12,12.47,12.47,0,0,0,3.27,8.37,11.88,11.88,0,0,0,3.77,2.79,11.52,11.52,0,0,0,9.74,0A12.1,12.1,0,0,0,73,145.86a12.39,12.39,0,0,0,1.89-6.55,10,10,0,0,0-.55-3.12,21.25,21.25,0,0,0-2.13-4.39A48,48,0,0,0,69,127.32l14.42-16.56,14.42,16.56c-.42.54-.87,1.12-1.32,1.74a37,37,0,0,0-2.88,4.54,17.74,17.74,0,0,0-1.12,2.59,9.82,9.82,0,0,0-.54,3.12,12.51,12.51,0,0,0,3.26,8.37A12,12,0,0,0,99,150.47a11.54,11.54,0,0,0,9.75,0,12.13,12.13,0,0,0,5.14-4.61,12.49,12.49,0,0,0,1.9-6.55,10,10,0,0,0-.55-3.12,21.28,21.28,0,0,0-2.14-4.39,48.69,48.69,0,0,0-3.16-4.45l21.17-23.93a4.59,4.59,0,0,0-3.44-7.64ZM102.92,41.56a2.42,2.42,0,0,1,2,0,3,3,0,0,1,1.23,1.14,3.23,3.23,0,0,1,.5,1.65,3,3,0,0,1-.2.61,15.35,15.35,0,0,1-1.37,2.53c-.36.55-.75,1.11-1.15,1.66l0,0a26.34,26.34,0,0,1-2.09-3.29,8,8,0,0,1-.53-1.2,2.72,2.72,0,0,1-.07-.28,3.36,3.36,0,0,1,.86-2.14A2.87,2.87,0,0,1,102.92,41.56ZM62,41.56a2.44,2.44,0,0,1,2,0A3,3,0,0,1,65.2,42.7a3.33,3.33,0,0,1,.5,1.65,3.82,3.82,0,0,1-.2.61,17,17,0,0,1-1.37,2.53c-.36.55-.76,1.11-1.15,1.66l0,0a26.34,26.34,0,0,1-2.09-3.29,8.82,8.82,0,0,1-.52-1.2,1.63,1.63,0,0,1-.08-.28,3.37,3.37,0,0,1,.87-2.14A2.83,2.83,0,0,1,62,41.56Zm2,100.58a2.34,2.34,0,0,1-2,0A3,3,0,0,1,60.76,141a3.33,3.33,0,0,1-.5-1.65,5.29,5.29,0,0,1,.2-.62,16.3,16.3,0,0,1,1.38-2.52c.35-.56.75-1.12,1.15-1.67l0,0a27.15,27.15,0,0,1,2.09,3.3,8.82,8.82,0,0,1,.52,1.2,1.6,1.6,0,0,1,.08.27,3.33,3.33,0,0,1-.87,2.14A2.68,2.68,0,0,1,64,142.14ZM83.3,96.6c-.11-.13-.27-.28-.4-.41h0l0,0a7.66,7.66,0,0,1-1.11-1.4,6.43,6.43,0,0,1-.53-1.13,3.54,3.54,0,0,1-.18-1.08,3.67,3.67,0,0,1,.24-1.24,8.09,8.09,0,0,1,1.59-2.41l.11-.1h0a4.57,4.57,0,0,0,.43-.45,4.67,4.67,0,0,0,.44.45h0s.15.14.37.38a8.4,8.4,0,0,1,1.09,1.59,4.13,4.13,0,0,1,.49,1.79,3.58,3.58,0,0,1-.24,1.24,6.59,6.59,0,0,1-1,1.78,5.77,5.77,0,0,1-.45.51l-.1.1h0c-.14.13-.29.28-.41.41l-.14.16Zm21.59,45.54a2.32,2.32,0,0,1-2,0,2.92,2.92,0,0,1-1.23-1.13,3.23,3.23,0,0,1-.5-1.65,3,3,0,0,1,.2-.62,16.12,16.12,0,0,1,1.37-2.52c.36-.56.75-1.12,1.15-1.67l0,0a27.15,27.15,0,0,1,2.09,3.3,8,8,0,0,1,.53,1.2,2.74,2.74,0,0,1,.07.27,3.32,3.32,0,0,1-.86,2.14A2.71,2.71,0,0,1,104.89,142.14Z"/></svg>