<svg id="Capa_1" data-name="Capa 1" xmlns="http://www.w3.org/2000/svg" viewBox="0 0 35.07 35.07"><path d="M15,23.91a4.18,4.18,0,0,0-.29-.45h0l-.16.23a1.56,1.56,0,0,0-.19.35.42.42,0,0,0,0,.09.51.51,0,0,0,.07.23.39.39,0,0,0,.17.15.29.29,0,0,0,.14,0,.28.28,0,0,0,.13,0,.27.27,0,0,0,.12-.09.42.42,0,0,0,.12-.29.08.08,0,0,0,0,0A.68.68,0,0,0,15,23.91Z"/><path d="M20.08,11.15a2.67,2.67,0,0,0,.29.46h0l.16-.23a3.26,3.26,0,0,0,.19-.35s0-.07,0-.08a.48.48,0,0,0-.07-.23.51.51,0,0,0-.17-.16.34.34,0,0,0-.28,0,.47.47,0,0,0-.12.09A.49.49,0,0,0,20,11s0,0,0,0A1.18,1.18,0,0,0,20.08,11.15Z"/><path d="M17.64,17.16l-.05-.05h0l-.06-.06a.34.34,0,0,1-.06.06h0v0l-.07.07a.84.84,0,0,0-.15.26.38.38,0,0,0,0,.17.4.4,0,0,0,0,.15,1.11,1.11,0,0,0,.07.16,1.07,1.07,0,0,0,.15.19h0l.05.06,0,0,0,0,.06-.06h0l.07-.07a.86.86,0,0,0,.14-.25.51.51,0,0,0,0-.17.65.65,0,0,0-.06-.25A1.4,1.4,0,0,0,17.64,17.16Z"/><path d="M14.83,10.56a.28.28,0,0,0-.13,0,.29.29,0,0,0-.14,0,.47.47,0,0,0-.12.09.49.49,0,0,0-.12.3.08.08,0,0,0,0,0,1,1,0,0,0,.07.16,3.46,3.46,0,0,0,.29.46h0l.16-.23a3.26,3.26,0,0,0,.19-.35s0-.07,0-.08a.39.39,0,0,0-.07-.23A.37.37,0,0,0,14.83,10.56Z"/><path d="M27.08,11.29a1.86,1.86,0,0,0-.42-.35l-8-4.6a1.6,1.6,0,0,0-.51-.19,3,3,0,0,0-1.28,0,1.8,1.8,0,0,0-.51.19l-8,4.6a2.15,2.15,0,0,0-.63.59,3,3,0,0,0-.44.86,2.35,2.35,0,0,0-.08.54v9.2a2.19,2.19,0,0,0,.19.84,2.84,2.84,0,0,0,.53.81,1.89,1.89,0,0,0,.43.35l8,4.6a2.17,2.17,0,0,0,.51.19,3,3,0,0,0,1.28,0,1.88,1.88,0,0,0,.51-.19l8-4.6a2.26,2.26,0,0,0,.62-.59,2.75,2.75,0,0,0,.44-.87,1.85,1.85,0,0,0,.09-.54v-9.2a2.17,2.17,0,0,0-.2-.83A2.84,2.84,0,0,0,27.08,11.29Zm-2.94,7.85-2.93,3.31a6.65,6.65,0,0,1,.44.62,3.11,3.11,0,0,1,.29.61,1.18,1.18,0,0,1,.08.43,1.78,1.78,0,0,1-.26.91,1.76,1.76,0,0,1-.71.64,1.62,1.62,0,0,1-1.36,0,1.82,1.82,0,0,1-.52-.39,1.73,1.73,0,0,1-.45-1.16,1.43,1.43,0,0,1,.07-.43,3,3,0,0,1,.16-.36,4.85,4.85,0,0,1,.4-.63,2.5,2.5,0,0,1,.18-.24l-2-2.3-2,2.3c.14.18.3.39.45.62a3.11,3.11,0,0,1,.29.61,1.43,1.43,0,0,1,.08.43,1.78,1.78,0,0,1-.26.91,1.73,1.73,0,0,1-.72.64,1.64,1.64,0,0,1-.67.15,1.69,1.69,0,0,1-1.65-1.7,1.43,1.43,0,0,1,.07-.43,2,2,0,0,1,.16-.36,4,4,0,0,1,.4-.63l.18-.24-2.94-3.31a.67.67,0,0,1-.1-.69.63.63,0,0,1,.58-.37h2a.64.64,0,0,1,0,1.27h-.58l1.88,2.13,2-2.3-.12-.13a2.23,2.23,0,0,1-.18-.2,2.31,2.31,0,0,1-.35-.6A1.8,1.8,0,0,1,16,17a2.33,2.33,0,0,1,.24-.45,2.28,2.28,0,0,1,.3-.36l.13-.15-2-2.43L12.8,15.87h.59a.64.64,0,0,1,0,1.28h-2a.63.63,0,0,1-.57-.37.64.64,0,0,1,.08-.68l2.93-3.48a4.51,4.51,0,0,1-.45-.62,3.14,3.14,0,0,1-.3-.61,1.43,1.43,0,0,1-.07-.43,1.69,1.69,0,0,1,.26-.91A1.64,1.64,0,0,1,14,9.41a1.54,1.54,0,0,1,.68-.15,1.5,1.5,0,0,1,.67.15,1.56,1.56,0,0,1,.52.38A1.74,1.74,0,0,1,16.35,11a1.43,1.43,0,0,1-.08.43,2.28,2.28,0,0,1-.15.36,5.64,5.64,0,0,1-.4.63l-.19.25,2,2.42,2-2.42c-.14-.18-.3-.4-.45-.63a3.84,3.84,0,0,1-.3-.61,1.43,1.43,0,0,1-.07-.43,1.72,1.72,0,0,1,1-1.55,1.62,1.62,0,0,1,1.36,0A1.69,1.69,0,0,1,22,11a1.18,1.18,0,0,1-.08.43,2.28,2.28,0,0,1-.15.36,5.64,5.64,0,0,1-.4.63l-.19.24,2.92,3.48a.63.63,0,0,1,.09.68.64.64,0,0,1-.58.37H21.68a.64.64,0,1,1,0-1.28h.59l-1.9-2.25-2,2.43.12.15a2,2,0,0,1,.19.2A2.23,2.23,0,0,1,19,17a1.66,1.66,0,0,1,0,1.24,1.66,1.66,0,0,1-.23.44,2.28,2.28,0,0,1-.3.36l-.11.13,2,2.3,1.88-2.13h-.57a.64.64,0,1,1,0-1.27h2a.63.63,0,0,1,.58.37A.65.65,0,0,1,24.14,19.14Z"/><path d="M30.78,0H4.28A4.28,4.28,0,0,0,0,4.28v26.5a4.29,4.29,0,0,0,4.28,4.29h26.5a4.29,4.29,0,0,0,4.29-4.29V4.28A4.29,4.29,0,0,0,30.78,0Zm-1.7,22.13a3.32,3.32,0,0,1-.3,1.35A4.17,4.17,0,0,1,28,24.65a3.28,3.28,0,0,1-.71.58l-8,4.6a3.33,3.33,0,0,1-.86.33,4.33,4.33,0,0,1-1.85,0,3.07,3.07,0,0,1-.86-.33l-8-4.6a3.24,3.24,0,0,1-1-.94A4,4,0,0,1,6.13,23,3.1,3.1,0,0,1,6,22.13v-9.2a3.28,3.28,0,0,1,.31-1.34,4.36,4.36,0,0,1,.76-1.17,3.06,3.06,0,0,1,.72-.58l8-4.6a2.79,2.79,0,0,1,.86-.33,3.94,3.94,0,0,1,1.85,0,3,3,0,0,1,.86.33l8,4.6a3.35,3.35,0,0,1,1,.94A4.15,4.15,0,0,1,28.94,12a3.19,3.19,0,0,1,.14.91Z"/><path d="M20.66,23.91a3.06,3.06,0,0,0-.29-.45h0l-.16.23A3.26,3.26,0,0,0,20,24a.42.42,0,0,0,0,.09.51.51,0,0,0,.07.23.39.39,0,0,0,.17.15.34.34,0,0,0,.28,0,.44.44,0,0,0,.24-.38s0,0,0,0S20.7,24,20.66,23.91Z"/></svg>