<svg id="Capa_1" data-name="Capa 1" xmlns="http://www.w3.org/2000/svg" viewBox="0 0 35.07 35.07"><defs><style>.cls-1{fill-rule:evenodd;}</style></defs><path class="cls-1" d="M30.78,0a4.29,4.29,0,0,1,4.29,4.28v26.5a4.29,4.29,0,0,1-4.29,4.29H4.28A4.29,4.29,0,0,1,0,30.78V4.28A4.28,4.28,0,0,1,4.28,0ZM17.53,5.55c-3.25,0-3.66,0-4.94.07a8.76,8.76,0,0,0-2.91.56,6.11,6.11,0,0,0-3.5,3.5,8.76,8.76,0,0,0-.56,2.91c-.06,1.28-.07,1.69-.07,4.94s0,3.67.07,4.94a8.71,8.71,0,0,0,.56,2.91,5.78,5.78,0,0,0,1.38,2.13,6,6,0,0,0,2.12,1.38,8.76,8.76,0,0,0,2.91.56c1.28.06,1.69.07,4.94.07s3.67,0,4.94-.07a8.71,8.71,0,0,0,2.91-.56,6.07,6.07,0,0,0,3.51-3.51,8.71,8.71,0,0,0,.56-2.91c.06-1.27.07-1.68.07-4.94s0-3.66-.07-4.94a8.76,8.76,0,0,0-.56-2.91,6,6,0,0,0-1.38-2.12,5.78,5.78,0,0,0-2.13-1.38,8.71,8.71,0,0,0-2.91-.56c-1.27-.06-1.68-.07-4.94-.07Zm0,2.16c3.2,0,3.58,0,4.85.07a6.61,6.61,0,0,1,2.22.41,3.75,3.75,0,0,1,1.38.9,3.8,3.8,0,0,1,.9,1.37,6.74,6.74,0,0,1,.41,2.23c.06,1.26.07,1.64.07,4.84s0,3.58-.07,4.85a6.61,6.61,0,0,1-.41,2.22,4,4,0,0,1-2.28,2.28,6.61,6.61,0,0,1-2.22.41c-1.27.06-1.65.07-4.85.07s-3.58,0-4.84-.07a6.74,6.74,0,0,1-2.23-.41A3.72,3.72,0,0,1,9.09,26a3.75,3.75,0,0,1-.9-1.38,6.61,6.61,0,0,1-.41-2.22c-.06-1.27-.07-1.65-.07-4.85s0-3.58.07-4.84a6.74,6.74,0,0,1,.41-2.23,3.8,3.8,0,0,1,.9-1.37,3.72,3.72,0,0,1,1.37-.9,6.74,6.74,0,0,1,2.23-.41c1.26-.06,1.64-.07,4.84-.07Zm0,3.67a6.16,6.16,0,1,0,6.16,6.15,6.15,6.15,0,0,0-6.16-6.15Zm0,10.15a4,4,0,1,1,4-4A4,4,0,0,1,17.53,21.53Zm7.84-10.39A1.44,1.44,0,1,1,23.93,9.7a1.43,1.43,0,0,1,1.44,1.44Z"/></svg>