<svg id="Capa_1" data-name="Capa 1" xmlns="http://www.w3.org/2000/svg" viewBox="0 0 35.07 35.07"><defs><style>.cls-1{fill-rule:evenodd;}</style></defs><path class="cls-1" d="M30.78,0a4.29,4.29,0,0,1,4.29,4.28v26.5a4.29,4.29,0,0,1-4.29,4.29H4.28A4.29,4.29,0,0,1,0,30.78V4.28A4.28,4.28,0,0,1,4.28,0ZM11,29V13.53H5.85V29Zm18.53,0V20.12c0-4.74-2.54-7-5.92-7A5.12,5.12,0,0,0,19,15.72V13.53H13.83c.07,1.45,0,15.46,0,15.46H19V20.36a3.43,3.43,0,0,1,.17-1.26,2.82,2.82,0,0,1,2.64-1.88c1.86,0,2.6,1.42,2.6,3.5V29ZM8.45,6.08a2.68,2.68,0,1,0-.06,5.34h0a2.68,2.68,0,1,0,0-5.34Z"/></svg>